<svg xmlns="http://www.w3.org/2000/svg" xmlns:xlink="http://www.w3.org/1999/xlink" version="1.1" x="0px" y="0px" viewBox="0 0 100 125" enable-background="new 0 0 100 100" xml:space="preserve"><g><g><path d="M60.495,91.416c-2.443,0-4.795-0.537-6.998-1.592c-33.33-15.865-34.403-51.032-30.313-67.407    c1.818-7.27,8.312-12.346,15.785-12.346c1.33,0,2.667,0.164,3.975,0.487c8.649,2.168,13.983,10.981,11.885,19.648    c-0.517,2.214-4.555,21.997,12.676,30.204c3.929,1.867,6.895,5.154,8.352,9.252c1.457,4.104,1.228,8.527-0.648,12.455    C72.528,87.765,66.753,91.416,60.495,91.416z M38.969,13.007c-6.126,0-11.443,4.162-12.935,10.121    c-3.889,15.57-2.891,48.995,28.73,64.045c1.807,0.866,3.734,1.305,5.73,1.305c5.128,0,9.865-2.99,12.063-7.623    c1.537-3.221,1.721-6.846,0.527-10.209c-1.193-3.361-3.625-6.055-6.843-7.586c-19.301-9.194-14.845-31.07-14.276-33.534    c1.727-7.115-2.645-14.342-9.733-16.117C41.159,13.142,40.064,13.007,38.969,13.007z"/></g></g><g><path d="M38.596,34.204c-3.998,0-7.25-3.252-7.25-7.25c0-3.998,3.252-7.25,7.25-7.25s7.25,3.252,7.25,7.25   C45.846,30.952,42.594,34.204,38.596,34.204z M38.596,22.641c-2.38,0-4.313,1.936-4.313,4.313s1.934,4.313,4.313,4.313   c2.375,0,4.313-1.936,4.313-4.313S40.971,22.641,38.596,22.641z"/></g><g><path d="M60.266,83.145c-3.998,0-7.25-3.252-7.25-7.25s3.252-7.25,7.25-7.25s7.25,3.252,7.25,7.25S64.264,83.145,60.266,83.145z    M60.266,71.581c-2.375,0-4.313,1.937-4.313,4.313s1.938,4.313,4.313,4.313c2.38,0,4.313-1.937,4.313-4.313   S62.646,71.581,60.266,71.581z"/></g><g><path d="M44.377,71.846c-2.403,0-4.358-1.957-4.358-4.359c0-2.404,1.955-4.359,4.358-4.359s4.359,1.955,4.359,4.359   C48.736,69.889,46.78,71.846,44.377,71.846z M44.377,66.063c-0.785,0-1.422,0.64-1.422,1.423c0,0.785,0.637,1.422,1.422,1.422   c0.786,0,1.423-0.637,1.423-1.422C45.8,66.703,45.163,66.063,44.377,66.063z"/></g><g><path d="M46.281,58.641c-2.093,0-3.797-1.703-3.797-3.797s1.704-3.797,3.797-3.797c2.094,0,3.798,1.703,3.798,3.797   S48.375,58.641,46.281,58.641z M46.281,53.984c-0.476,0-0.86,0.387-0.86,0.859c0,0.474,0.385,0.861,0.86,0.861   c0.471,0,0.86-0.388,0.86-0.861C47.142,54.371,46.752,53.984,46.281,53.984z"/></g><g><path d="M35.504,48.787c-3.28,0-5.948-2.67-5.948-5.951s2.668-5.951,5.948-5.951c3.281,0,5.954,2.67,5.954,5.951   S38.785,48.787,35.504,48.787z M35.504,39.822c-1.663,0-3.011,1.351-3.011,3.014s1.348,3.014,3.011,3.014s3.018-1.351,3.018-3.014   S37.167,39.822,35.504,39.822z"/></g><g><rect x="41.251" y="3.923" transform="matrix(0.9487 0.3163 -0.3163 0.9487 4.6697 -13.1093)" width="2.938" height="7.816"/></g><g><polygon points="28.231,15.938 22.954,8.958 25.294,7.186 30.571,14.166  "/></g><g><rect x="15.462" y="24.595" transform="matrix(0.9771 0.2126 -0.2126 0.9771 5.9889 -3.583)" width="8.394" height="2.935"/></g><g><rect x="17.303" y="37.406" transform="matrix(0.1991 0.98 -0.98 0.1991 55.8857 14.9894)" width="2.938" height="8.558"/></g><g><polygon points="18.389,59.779 17.133,57.124 24.778,53.517 26.034,56.172  "/></g><g><rect x="26.105" y="65.386" transform="matrix(0.3044 0.9525 -0.9525 0.3044 84.9122 21.7342)" width="2.938" height="7.245"/></g><g><polygon points="35.183,85.691 33.135,83.586 38.963,77.931 41.011,80.035  "/></g><g><rect x="46.7" y="85.927" transform="matrix(0.9001 0.4356 -0.4356 0.9001 44.1326 -11.9678)" width="2.937" height="8.688"/></g><g><polygon points="64.647,96.343 62.611,89.95 65.41,89.055 67.446,95.447  "/></g><g><rect x="72.811" y="82.973" transform="matrix(0.8804 0.4742 -0.4742 0.8804 49.2337 -26.3464)" width="8.085" height="2.938"/></g><g><rect x="77.067" y="64.513" transform="matrix(0.3068 0.9518 -0.9518 0.3068 119.919 -27.056)" width="2.935" height="8.574"/></g><g><rect x="66.361" y="53.734" transform="matrix(0.7273 0.6863 -0.6863 0.7273 58.1744 -30.7876)" width="2.934" height="8.15"/></g><g><polygon points="55.058,47.081 53.916,44.374 60.753,41.483 61.895,44.19  "/></g><g><rect x="53.365" y="28.923" transform="matrix(0.9912 0.1327 -0.1327 0.9912 4.539 -7.3418)" width="7.997" height="2.934"/></g><g><rect x="53.642" y="9.86" transform="matrix(0.6607 0.7507 -0.7507 0.6607 29.8724 -36.3195)" width="2.934" height="10.044"/></g><text x="0" y="115" fill="#000000" font-size="5px" font-weight="bold" font-family="'Helvetica Neue', Helvetica, Arial-Unicode, Arial, Sans-serif">Created by Icons Producer</text><text x="0" y="120" fill="#000000" font-size="5px" font-weight="bold" font-family="'Helvetica Neue', Helvetica, Arial-Unicode, Arial, Sans-serif">from the Noun Project</text></svg>