<?xml version="1.0" encoding="UTF-8"?>
<svg xmlns="http://www.w3.org/2000/svg" xmlns:xlink="http://www.w3.org/1999/xlink" width="360pt" height="360pt" viewBox="0 0 360 360" version="1.1">
<g id="surface42">
<rect x="0" y="0" width="360" height="360" style="fill:rgb(100%,100%,100%);fill-opacity:1;stroke:none;"/>
<path style="fill:none;stroke-width:1.5;stroke-linecap:round;stroke-linejoin:round;stroke:rgb(0%,0%,0%);stroke-opacity:1;stroke-miterlimit:10;" d="M 69.066406 278.132812 L 74.183594 268.390625 L 79.296875 258.613281 L 84.414062 248.816406 L 89.527344 239.027344 L 94.644531 229.261719 L 99.761719 219.550781 L 104.875 209.914062 L 109.992188 200.382812 L 115.109375 190.976562 L 120.222656 181.722656 L 125.339844 172.65625 L 130.453125 163.796875 L 135.570312 155.179688 L 140.6875 146.828125 L 145.800781 138.769531 L 150.917969 131.03125 L 156.03125 123.640625 L 161.148438 116.621094 L 166.265625 110 L 171.378906 103.796875 L 176.496094 98.035156 L 181.609375 92.730469 L 186.726562 87.902344 L 191.84375 83.5625 L 196.957031 79.726562 L 202.074219 76.402344 L 207.1875 73.597656 L 212.304688 71.320312 L 217.421875 69.570312 L 222.535156 68.347656 L 227.652344 67.648438 L 232.765625 67.464844 L 237.882812 67.796875 L 243 68.632812 L 248.113281 69.953125 L 253.230469 71.753906 L 258.34375 74.015625 L 263.460938 76.71875 L 268.578125 79.847656 L 273.691406 83.386719 L 278.808594 87.308594 L 283.921875 91.59375 L 289.039062 96.222656 L 294.15625 101.171875 L 299.269531 106.417969 L 304.386719 111.941406 L 309.503906 117.71875 L 314.617188 123.722656 L 319.734375 129.941406 "/>
</g>
</svg>
