<?xml version="1.0" encoding="UTF-8" standalone="no"?>
<!-- Created with Inkscape (http://www.inkscape.org/) -->

<svg
   xmlns:dc="http://purl.org/dc/elements/1.1/"
   xmlns:cc="http://creativecommons.org/ns#"
   xmlns:rdf="http://www.w3.org/1999/02/22-rdf-syntax-ns#"
   xmlns:svg="http://www.w3.org/2000/svg"
   xmlns="http://www.w3.org/2000/svg"
   xmlns:sodipodi="http://sodipodi.sourceforge.net/DTD/sodipodi-0.dtd"
   xmlns:inkscape="http://www.inkscape.org/namespaces/inkscape"
   width="166.94572mm"
   height="110.68563mm"
   viewBox="0 0 591.53997 392.19318"
   id="svg8203"
   version="1.1"
   inkscape:version="0.91 r13725"
   sodipodi:docname="trophic_control.svg"
   inkscape:export-filename="/home/local/USHERBROOKE/bida2502/GitHub/talk_seminar2UdeS/images/trophic_control.png"
   inkscape:export-xdpi="96"
   inkscape:export-ydpi="96">
  <defs
     id="defs8205">
    <marker
       inkscape:stockid="Arrow1Mend"
       orient="auto"
       refY="0"
       refX="0"
       id="marker45344"
       style="overflow:visible"
       inkscape:isstock="true">
      <path
         inkscape:connector-curvature="0"
         id="path45346"
         d="M 0,0 5,-5 -12.5,0 5,5 0,0 Z"
         style="fill:#333333;fill-opacity:1;fill-rule:evenodd;stroke:#333333;stroke-width:1pt;stroke-opacity:1"
         transform="matrix(-0.4,0,0,-0.4,-4,0)" />
    </marker>
    <marker
       inkscape:isstock="true"
       style="overflow:visible"
       id="marker18408"
       refX="0"
       refY="0"
       orient="auto"
       inkscape:stockid="Arrow2Send">
      <path
         transform="matrix(-0.3,0,0,-0.3,0.69,0)"
         d="M 8.7185878,4.0337352 -2.2072895,0.01601326 8.7185884,-4.0017078 c -1.7454984,2.3720609 -1.7354408,5.6174519 -6e-7,8.035443 z"
         style="fill:#000000;fill-opacity:1;fill-rule:evenodd;stroke:#000000;stroke-width:0.625;stroke-linejoin:round;stroke-opacity:1"
         id="path18410"
         inkscape:connector-curvature="0" />
    </marker>
    <marker
       inkscape:isstock="true"
       style="overflow:visible"
       id="marker18418"
       refX="0"
       refY="0"
       orient="auto"
       inkscape:stockid="Arrow2Send">
      <path
         transform="matrix(-0.3,0,0,-0.3,0.69,0)"
         d="M 8.7185878,4.0337352 -2.2072895,0.01601326 8.7185884,-4.0017078 c -1.7454984,2.3720609 -1.7354408,5.6174519 -6e-7,8.035443 z"
         style="fill:#000000;fill-opacity:1;fill-rule:evenodd;stroke:#000000;stroke-width:0.625;stroke-linejoin:round;stroke-opacity:1"
         id="path18420"
         inkscape:connector-curvature="0" />
    </marker>
    <marker
       inkscape:stockid="Arrow2Send"
       orient="auto"
       refY="0"
       refX="0"
       id="marker19678"
       style="overflow:visible"
       inkscape:isstock="true"
       inkscape:collect="always">
      <path
         inkscape:connector-curvature="0"
         id="path19680"
         style="fill:#000000;fill-opacity:1;fill-rule:evenodd;stroke:#000000;stroke-width:0.625;stroke-linejoin:round;stroke-opacity:1"
         d="M 8.7185878,4.0337352 -2.2072895,0.01601326 8.7185884,-4.0017078 c -1.7454984,2.3720609 -1.7354408,5.6174519 -6e-7,8.035443 z"
         transform="matrix(-0.3,0,0,-0.3,0.69,0)" />
    </marker>
    <marker
       inkscape:isstock="true"
       style="overflow:visible"
       id="marker18408-0"
       refX="0"
       refY="0"
       orient="auto"
       inkscape:stockid="Arrow2Send">
      <path
         transform="matrix(-0.3,0,0,-0.3,0.69,0)"
         d="M 8.7185878,4.0337352 -2.2072895,0.01601326 8.7185884,-4.0017078 c -1.7454984,2.3720609 -1.7354408,5.6174519 -6e-7,8.035443 z"
         style="fill:#000000;fill-opacity:1;fill-rule:evenodd;stroke:#000000;stroke-width:0.625;stroke-linejoin:round;stroke-opacity:1"
         id="path18410-5"
         inkscape:connector-curvature="0" />
    </marker>
    <marker
       inkscape:isstock="true"
       style="overflow:visible"
       id="marker18418-4"
       refX="0"
       refY="0"
       orient="auto"
       inkscape:stockid="Arrow2Send">
      <path
         transform="matrix(-0.3,0,0,-0.3,0.69,0)"
         d="M 8.7185878,4.0337352 -2.2072895,0.01601326 8.7185884,-4.0017078 c -1.7454984,2.3720609 -1.7354408,5.6174519 -6e-7,8.035443 z"
         style="fill:#000000;fill-opacity:1;fill-rule:evenodd;stroke:#000000;stroke-width:0.625;stroke-linejoin:round;stroke-opacity:1"
         id="path18420-1"
         inkscape:connector-curvature="0" />
    </marker>
    <marker
       inkscape:stockid="Arrow2Send"
       orient="auto"
       refY="0"
       refX="0"
       id="marker19678-0"
       style="overflow:visible"
       inkscape:isstock="true"
       inkscape:collect="always">
      <path
         inkscape:connector-curvature="0"
         id="path19680-0"
         style="fill:#ff0000;fill-opacity:1;fill-rule:evenodd;stroke:#ff0000;stroke-width:0.625;stroke-linejoin:round;stroke-opacity:1"
         d="M 8.7185878,4.0337352 -2.2072895,0.01601326 8.7185884,-4.0017078 c -1.7454984,2.3720609 -1.7354408,5.6174519 -6e-7,8.035443 z"
         transform="matrix(-0.3,0,0,-0.3,0.69,0)" />
    </marker>
  </defs>
  <sodipodi:namedview
     id="base"
     pagecolor="#ffffff"
     bordercolor="#666666"
     borderopacity="1.0"
     inkscape:pageopacity="0.0"
     inkscape:pageshadow="2"
     inkscape:zoom="1.4"
     inkscape:cx="310.9599"
     inkscape:cy="68.542424"
     inkscape:document-units="px"
     inkscape:current-layer="g12912"
     showgrid="false"
     showguides="true"
     inkscape:guide-bbox="true"
     inkscape:window-width="3118"
     inkscape:window-height="1758"
     inkscape:window-x="82"
     inkscape:window-y="42"
     inkscape:window-maximized="1"
     fit-margin-top="0"
     fit-margin-left="0"
     fit-margin-right="0"
     fit-margin-bottom="0">
    <sodipodi:guide
       position="-133.07813,535.76878"
       orientation="1,0"
       id="guide12972" />
    <sodipodi:guide
       position="464.06473,521.48306"
       orientation="1,0"
       id="guide12974" />
    <sodipodi:guide
       position="570.49329,110.76877"
       orientation="0,1"
       id="guide12976" />
    <sodipodi:guide
       position="219.77901,-44.231229"
       orientation="0,1"
       id="guide12978" />
    <sodipodi:guide
       position="164.77901,-264.94552"
       orientation="0,1"
       id="guide13021" />
    <sodipodi:guide
       position="40.493308,257.91163"
       orientation="0,1"
       id="guide8441" />
    <sodipodi:guide
       position="500.49329,257.91163"
       orientation="1,0"
       id="guide8443" />
    <sodipodi:guide
       position="-94.506698,488.62592"
       orientation="1,0"
       id="guide8445" />
  </sodipodi:namedview>
  <metadata
     id="metadata8208">
    <rdf:RDF>
      <cc:Work
         rdf:about="">
        <dc:format>image/svg+xml</dc:format>
        <dc:type
           rdf:resource="http://purl.org/dc/dcmitype/StillImage" />
        <dc:title></dc:title>
      </cc:Work>
    </rdf:RDF>
  </metadata>
  <g
     inkscape:label="Calque 1"
     inkscape:groupmode="layer"
     id="layer1"
     transform="translate(-363.07812,-372.36636)">
    <rect
       rx="37.234764"
       y="373.46814"
       x="363.07812"
       height="70.258011"
       width="255.90886"
       id="rect10035-5-4-0"
       style="opacity:1;fill:#4d4d4d;fill-opacity:1;stroke:none;stroke-width:2.79089522;stroke-miterlimit:4;stroke-dasharray:none;stroke-dashoffset:0;stroke-opacity:1"
       ry="21.856668" />
    <text
       transform="scale(1.0440734,0.95778707)"
       inkscape:export-ydpi="96"
       inkscape:export-xdpi="96"
       id="text1611-1-3-61-7-3-9"
       y="435.37097"
       x="470.70792"
       style="font-style:normal;font-variant:normal;font-weight:bold;font-stretch:normal;font-size:26.40628052px;line-height:1.25;font-family:'Latin Modern Roman';-inkscape-font-specification:'Latin Modern Roman, Bold';text-align:center;letter-spacing:0px;word-spacing:0px;writing-mode:lr-tb;text-anchor:middle;fill:#ffffff;fill-opacity:1;stroke:none;stroke-width:0.36921218"
       xml:space="preserve"><tspan
         id="tspan5976-9-2-4-4"
         style="font-style:normal;font-variant:normal;font-weight:bold;font-stretch:normal;font-size:32.75429535px;line-height:0;font-family:'Latin Modern Roman';-inkscape-font-specification:'Latin Modern Roman, Bold';text-align:center;writing-mode:lr-tb;text-anchor:middle;fill:#ffffff;stroke-width:0.36921218"
         y="435.37097"
         x="470.70792"
         sodipodi:role="line">Bottom-up</tspan></text>
    <rect
       rx="37.234764"
       y="372.36636"
       x="698.70923"
       height="70.258011"
       width="255.90886"
       id="rect10035-5-4-0-3"
       style="opacity:1;fill:#4d4d4d;fill-opacity:1;stroke:none;stroke-width:2.79089522;stroke-miterlimit:4;stroke-dasharray:none;stroke-dashoffset:0;stroke-opacity:1"
       ry="21.856668" />
    <text
       transform="scale(1.0440734,0.95778707)"
       inkscape:export-ydpi="96"
       inkscape:export-xdpi="96"
       id="text1611-1-3-61-7-3-9-9"
       y="434.22028"
       x="790.08911"
       style="font-style:normal;font-variant:normal;font-weight:bold;font-stretch:normal;font-size:26.40628052px;line-height:1.25;font-family:'Latin Modern Roman';-inkscape-font-specification:'Latin Modern Roman, Bold';text-align:center;letter-spacing:0px;word-spacing:0px;writing-mode:lr-tb;text-anchor:middle;fill:#ffffff;fill-opacity:1;stroke:none;stroke-width:0.36921218"
       xml:space="preserve"><tspan
         id="tspan5976-9-2-4-4-3"
         style="font-style:normal;font-variant:normal;font-weight:bold;font-stretch:normal;font-size:32.75429535px;line-height:0;font-family:'Latin Modern Roman';-inkscape-font-specification:'Latin Modern Roman, Bold';text-align:center;writing-mode:lr-tb;text-anchor:middle;fill:#ffffff;stroke-width:0.36921218"
         y="434.22028"
         x="790.08911"
         sodipodi:role="line">Top-down</tspan></text>
    <g
       style="fill:#000000;stroke:none"
       transform="matrix(0.05349167,0,0,-0.04687678,-657.09745,140.67975)"
       id="g12912">
      <path
         style="fill:none;stroke:#ff0000;stroke-width:239.63998413;stroke-linecap:butt;stroke-linejoin:miter;stroke-miterlimit:4;stroke-dasharray:none;stroke-opacity:1;marker-end:url(#marker19678-0)"
         d="m 28627.997,-9742.0789 0,-1129.0591"
         id="path15308-5-6-2"
         inkscape:connector-curvature="0" />
      <path
         style="fill:none;stroke:#000000;stroke-width:199.69998169;stroke-linecap:butt;stroke-linejoin:miter;stroke-miterlimit:4;stroke-dasharray:none;stroke-opacity:1;marker-end:url(#marker18418-4)"
         d="m 28627.997,-9213.1379 0,1129.0594"
         id="path15308-5-2-5"
         inkscape:connector-curvature="0" />
      <path
         style="fill:none;stroke:#000000;stroke-width:199.69998169;stroke-linecap:butt;stroke-linejoin:miter;stroke-miterlimit:4;stroke-dasharray:none;stroke-opacity:1;marker-end:url(#marker18408-0)"
         d="m 28627.997,-13025.752 0,1129.059"
         id="path15308-5-3-3"
         inkscape:connector-curvature="0" />
      <ellipse
         ry="638.03601"
         rx="595.20917"
         cy="8299.1309"
         cx="26547.652"
         id="ellipse11912-4-6"
         style="opacity:1;fill:#808080;fill-opacity:1;stroke:none;stroke-width:2.79089522;stroke-miterlimit:4;stroke-dasharray:none;stroke-dashoffset:0;stroke-opacity:1"
         transform="scale(1,-1)" />
      <ellipse
         ry="638.03601"
         rx="595.20917"
         cy="10292.998"
         cx="26547.652"
         id="ellipse11914-1-2"
         style="opacity:1;fill:#808080;fill-opacity:1;stroke:none;stroke-width:2.79089522;stroke-miterlimit:4;stroke-dasharray:none;stroke-dashoffset:0;stroke-opacity:1"
         transform="scale(1,-1)" />
      <ellipse
         ry="638.03601"
         rx="595.20917"
         cy="12286.859"
         cx="26547.652"
         id="ellipse11916-1-3"
         style="opacity:1;fill:#808080;fill-opacity:1;stroke:none;stroke-width:2.79089522;stroke-miterlimit:4;stroke-dasharray:none;stroke-dashoffset:0;stroke-opacity:1"
         transform="scale(1,-1)" />
      <path
         inkscape:connector-curvature="0"
         id="path11918-3-9"
         d="m 26547.657,-7799.9037 0,-4486.9583"
         style="fill:#ffffff;stroke:#808080;stroke-width:282.43139648;stroke-linecap:butt;stroke-linejoin:miter;stroke-miterlimit:4;stroke-dasharray:none;stroke-opacity:1" />
      <path
         inkscape:transform-center-y="-16.567061"
         inkscape:transform-center-x="222.19644"
         inkscape:connector-curvature="0"
         d="m 26743.386,-7616.3352 c -55.244,-14.3964 -105.022,-52.2371 -151.346,-115.1702 -16.689,-22.6221 -47.764,-60.8749 -68.768,-84.7328 l -37.98,-43.1877 -25.32,-2.4684 c -92.651,-8.6375 -193.356,-128.3326 -303.557,-360.7295 -27.623,-57.9963 -104.447,-237.7457 -112.216,-262.012 -1.725,-5.3487 -25.896,-37.0203 -53.518,-70.3381 -81.716,-97.071 -184.148,-223.347 -208.892,-257.487 l -23.019,-31.672 21.292,-14.397 c 31.074,-20.565 59.56,-34.551 71.07,-34.551 12.66,0 27.334,19.333 166.021,219.648 53.518,77.328 96.678,138.614 95.814,136.146 -0.576,-2.056 -49.202,-92.136 -107.611,-199.491 l -106.461,-194.966 5.755,-16.041 c 7.481,-21.39 26.47,-50.183 36.829,-56.352 18.128,-10.696 31.651,2.878 52.943,54.706 17.84,43.189 61.574,128.744 111.927,218.824 34.816,61.697 79.989,139.849 81.141,139.849 0.288,0 10.645,-11.105 22.73,-25.091 40.283,-45.656 93.512,-78.563 142.427,-88.435 12.085,-2.467 27.91,-6.992 35.103,-10.282 12.948,-5.759 13.524,-6.581 15.25,-25.091 0.864,-10.283 1.727,-58.818 1.727,-107.767 0.288,-95.426 4.317,-239.39 7.481,-264.478 1.725,-14.397 1.439,-15.633 -4.891,-15.633 -3.74,0 -19.853,6.581 -35.391,14.397 -33.089,16.453 -37.693,17.275 -42.009,6.581 -3.452,-9.461 -3.452,-13.161 -0.288,-20.154 2.877,-6.583 49.49,-31.672 66.179,-35.786 10.357,-2.468 15.825,-7.815 33.952,-34.55 16.976,-24.68 24.17,-39.077 33.664,-67.046 6.33,-20.155 13.812,-37.019 16.402,-38.253 6.616,-3.29 13.523,1.647 15.537,10.694 2.301,9.872 -8.057,49.359 -18.703,72.391 -12.373,25.915 -12.373,25.915 37.405,-25.088 10.071,-10.284 12.661,-11.106 18.702,-7.404 12.948,8.638 9.496,22.621 -10.645,44.832 -9.783,10.696 -22.443,23.858 -28.198,28.795 l -10.071,9.048 12.085,0.412 c 11.509,0 21.004,7.815 21.004,16.865 0,2.468 -1.437,7.815 -2.877,12.34 -2.878,6.993 -6.329,7.815 -38.556,7.815 l -35.679,0 -3.165,46.48 c -3.74,46.89 -8.631,352.09 -6.042,354.559 0.864,0.823 9.207,-0.824 18.702,-2.879 9.496,-2.056 36.83,-3.291 60.712,-2.056 l 43.159,2.056 10.646,-31.261 c 17.551,-53.06 51.504,-140.673 68.768,-178.102 14.962,-32.083 27.334,-69.514 32.226,-99.129 l 1.726,-11.518 -31.651,0 c -34.816,0 -43.159,-3.291 -43.159,-17.686 0,-17.688 4.603,-19.333 48.051,-19.333 36.829,0 41.432,-0.823 43.159,-6.991 1.152,-4.115 4.892,-13.164 8.919,-20.567 3.741,-7.404 10.358,-23.033 14.387,-34.963 8.92,-24.678 17.264,-30.025 24.457,-15.63 4.029,8.225 4.029,11.106 0.288,26.324 -2.302,9.05 -7.481,23.858 -11.222,32.084 -4.029,8.637 -7.192,16.453 -7.192,17.687 0,4.937 11.221,1.647 14.673,-4.525 2.014,-3.701 11.509,-11.928 21.005,-18.921 9.783,-6.581 23.594,-19.744 31.074,-28.381 14.1,-16.865 26.184,-20.566 29.349,-9.46 4.028,15.22 1.152,22.624 -15.825,41.955 l -17.552,19.332 24.745,1.235 c 23.595,1.235 25.033,1.647 28.485,11.93 2.878,9.049 2.303,11.518 -3.452,18.097 -6.043,6.993 -12.373,7.816 -69.343,7.816 l -62.726,0 -4.603,26.736 c -6.33,36.609 -16.401,67.456 -34.529,106.533 -28.773,62.521 -75.96,190.442 -71.933,195.378 1.44,1.647 10.935,6.17 21.293,10.282 30.212,11.106 68.768,33.73 96.39,56.352 92.937,76.094 155.663,188.797 179.832,321.6545 2.878,16.4529 9.207,41.5434 13.812,55.5279 21.867,65.4013 18.126,152.6007 -9.496,231.1644 -9.783,27.5588 -9.783,28.381 -4.028,30.8493 7.769,3.7008 48.915,75.2714 59.273,103.2422 4.603,13.1607 10.358,23.4442 13.811,24.2666 10.358,3.7025 181.558,39.0765 187.888,39.0765 3.453,0 6.331,1.2351 6.331,3.2907 0,1.6469 -23.594,8.2256 -52.655,14.3965 -100.995,22.2102 -124.876,29.2032 -115.669,32.4937 4.892,1.6469 44.312,6.9932 87.758,11.9283 43.448,4.5246 79.415,9.0495 79.99,9.8716 1.727,2.0565 -5.179,4.1144 -95.815,30.8494 -47.475,13.5743 -89.196,25.9143 -92.362,26.7367 -3.452,1.2352 -11.508,11.9281 -17.838,23.8562 -36.83,69.5141 -117.108,103.2421 -197.097,82.6765 z"
         id="path12918-2-7"
         style="fill:#c34141;fill-opacity:1;stroke:#800000;stroke-width:35.95705795;stroke-miterlimit:4;stroke-dasharray:none;stroke-opacity:1" />
      <g
         style="display:inline;fill:#009048;fill-opacity:1;stroke:#004f00;stroke-width:1.18502116;stroke-miterlimit:4;stroke-dasharray:none;stroke-opacity:1"
         id="g15656-0-9-0-3-6-5"
         transform="matrix(41.480896,8.5399136,9.0666657,-40.823572,17204.818,-15641.325)">
        <path
           sodipodi:nodetypes="cccccccccccccccccccccccccccccccccccccccccccccccccccccccccccccccccccccccccccccccccccccccccccccccccccccc"
           inkscape:connector-curvature="0"
           id="path18912-54-3-7-0-3-14"
           d="m 229.53998,-53.469776 -0.70558,2.50385 -2.55093,3.42918 -1.79108,5.33429 0.48847,3.53806 3.79927,4.02793 3.03941,1.25192 1.2212,0.0544 0.67844,0.8709 c 0.28689,0.86052 0.51387,1.73981 0.75985,2.61271 l 0.0543,0.92533 -0.54274,-0.38101 -0.86841,-2.12283 -0.92268,-0.87092 -0.75985,-0.1088 -1.89964,-0.97977 -1.30261,-0.0544 -3.36506,0.1088 -1.95391,0.97977 -1.19404,1.25192 -1.84537,1.0342 2.44239,1.08863 2.17101,1.08863 1.68253,0.97977 2.06245,0.92533 1.89964,0.0544 1.62826,-0.70761 0.97695,0.70761 0.81413,-0.38103 -0.0543,0.87091 1.08551,0 1.46542,-0.38102 1.46544,4.08237 -0.54275,0.27216 -0.2171,-0.10892 -0.27138,-1.30636 -0.81413,-0.43546 -0.92268,-0.43545 -1.89963,-0.48988 -0.48847,0.27216 -1.62826,0.32659 -0.75985,0.92534 -1.24834,0.97976 -1.68253,1.52408 -1.13978,2.12283 -0.2171,2.93931 0.75986,-1.52409 1.79107,-0.21772 2.49667,0.76204 0.8684,0.43545 3.85354,-0.76204 2.60522,-0.97977 0.37992,-2.34056 1.13978,3.59248 0.65131,0.10881 0.59702,-0.76204 -0.16283,-0.81647 -0.97694,-1.30636 1.79108,0.27216 2.55093,-0.27216 2.11673,-1.79624 1.08551,-2.01396 0.16282,-2.01398 0.59702,-1.25192 0,-0.65317 1.24834,-2.93931 -1.24834,0.81648 -1.62824,0 -1.62826,0.10881 -1.57399,0.97976 -2.71376,0.65318 -1.46543,0.92533 -0.27137,1.30636 -0.75986,0.54431 -0.16282,0.54432 -0.92269,-2.34056 0.65131,0.38103 0.6513,0.43545 1.13978,-0.87091 0.32566,-1.41522 1.35687,-0.76203 1.46543,-1.36079 1.35688,-2.93931 -0.0345,-2.06613 -1.68253,-4.35452 -1.03122,-1.25192 -0.70559,-1.3608 0,-0.92533 -1.41116,1.79625 -1.00611,2.62119 -0.95235,1.48458 -1.29661,2.54862 -0.42655,2.32488 -0.2948,-1.25878 -0.17812,-1.31585 1.99059,-3.99692 0.55978,-3.25883 -0.91224,-4.26773 -2.3881,-2.61271 -1.84536,-1.63294 c -0.53722,-0.40145 -1.05419,-0.82838 -1.57399,-1.25193 z"
           style="fill:#009048;fill-opacity:1;stroke:#004f00;stroke-width:1.18502116;stroke-linecap:butt;stroke-linejoin:miter;stroke-miterlimit:4;stroke-dasharray:none;stroke-opacity:1" />
      </g>
      <text
         transform="scale(0.96585565,-1.0353514)"
         inkscape:transform-center-y="0.88683865"
         inkscape:transform-center-x="3.907414"
         inkscape:export-ydpi="96"
         inkscape:export-xdpi="96"
         id="text11945-8-2"
         y="12090.811"
         x="27275.744"
         style="font-style:normal;font-variant:normal;font-weight:bold;font-stretch:normal;font-size:704.86199951px;line-height:1.25;font-family:'Latin Modern Roman';-inkscape-font-specification:'Latin Modern Roman, Bold';text-align:start;letter-spacing:0px;word-spacing:0px;writing-mode:lr-tb;text-anchor:start;fill:#ffffff;fill-opacity:1;stroke:none;stroke-width:0.36921218"
         xml:space="preserve"><tspan
           id="tspan11943-6-8"
           style="font-style:normal;font-variant:normal;font-weight:bold;font-stretch:normal;font-size:704.86199951px;line-height:0;font-family:'Latin Modern Roman';-inkscape-font-specification:'Latin Modern Roman, Bold';text-align:start;writing-mode:lr-tb;text-anchor:start;fill:#ffffff;stroke-width:0.36921218"
           y="12090.811"
           x="27275.744"
           sodipodi:role="line">1</tspan></text>
      <g
         style="display:inline;fill:#4c3d6a;fill-opacity:1;stroke:#000080;stroke-width:1.49154162;stroke-miterlimit:4;stroke-dasharray:none"
         id="g15083-7-57-2-2-3-2-6-2"
         transform="matrix(-40.609652,-12.69424,13.296213,-41.326262,36593.958,-3056.3612)">
        <path
           inkscape:connector-curvature="0"
           id="path3613-3-9-4-0-1-4-8-1-3-8"
           d="m 263.11714,91.664983 0.42987,-1.282902 1.00095,-0.956114 0.51174,-1.527239 0.69515,-1.262143 2.63568,-2.991088 1.63307,-0.405146 0.24563,-0.733081 4.10376,-1.685126 5.71474,-0.399339 4.38705,0.719287 4.83432,2.431261 2.60844,3.793087 0.95431,4.870516 -0.98316,3.543516 -2.30816,2.013633 -7.67346,-0.0517 0.42781,0.75441 5.36633,1.04665 -0.65381,0.732485 0.91808,0.30691 -0.12446,1.99637 -1.02102,0.60975 -0.26509,-0.22448 0.20531,-1.22209 -1.48876,-1.04114 -3.63153,-1.146055 -0.79586,-0.0622 -0.57131,-0.12305 -1.22407,-0.40919 -0.28454,-1.18203 -2.61152,-0.737153 -1.42756,-1.020679 -0.18423,0.54981 1.63124,1.428422 0.24379,1.1005 0.61143,0.81578 -0.32751,0.977445 1.04047,0.34782 -0.26632,0.9979 0.38647,1.28406 -0.65442,1.34367 0.0802,1.3855 -0.91908,0.71176 -0.90045,2.48422 -0.36662,-0.73395 0.57314,-1.71053 -0.40775,-0.40803 0.22517,-0.67198 0.40837,-0.20317 0.30705,-0.91635 0.38789,-0.14206 -0.16252,-0.73365 0.22517,-0.672 -0.53038,-0.24524 -0.10031,-1.73184 -0.61101,-1.22326 -0.97927,-0.327355 -0.83395,-2.792282 -0.71172,-2.547637 -0.89882,0.854395 0.14083,2.017124 -0.55412,3.075535 -1.08203,0.38554 -0.12282,0.36654 -1.38824,0.487 -1.06115,-0.083 -0.26611,0.79416 -0.93915,0.36538 0.38668,1.08034 -0.46938,-0.0209 0.10093,1.12066 -0.776,0.48785 -0.49127,1.46616 -0.0391,-1.7114 -0.28474,-0.97831 0.55124,-0.22331 0.18424,-0.54982 0.40878,-0.61062 -0.16273,-0.52993 0.75636,-1.24168 0.12302,-0.57026 0.98029,-0.691305 1.2241,0.409205 0.30642,-0.305155 0.24564,-0.73307 0.0416,-0.73337 0.71685,-2.545613 -1.32746,0.914904 -1.16309,-0.185006 -0.79565,-0.265981 -0.36784,0.488419 -0.69393,0.03974 0.0397,1.100217 -0.61408,1.83268 -0.5101,-0.1026 0.26712,-1.81281 -0.8366,-0.1438 -0.65298,-0.0825 -0.38627,-1.487789 -2.73556,0.851797 -1.79683,0.893852 -0.32567,-0.856132 0.30704,-0.916352 4.22494,-0.421831 -0.30478,-1.324669 -0.0604,-0.835386 -0.79564,-0.265981 -0.57069,-0.734241 -4.38605,-1.737935 -1.857,-0.145253 -3.04057,-0.269165 0.30704,-0.916346 3.30586,0.289915 3.30523,0.901101 1.9786,1.001095 0.14329,-0.427624 0.5101,0.102593 -0.7541,-0.99935 -0.36724,-0.122762 0.89863,-0.650661 1.0806,1.040565 z"
           style="fill:#4c3d6a;fill-opacity:1;stroke:#000080;stroke-width:1.49154162;stroke-linecap:butt;stroke-linejoin:miter;stroke-miterlimit:4;stroke-dasharray:none;stroke-opacity:1" />
      </g>
      <text
         transform="scale(0.96585565,-1.0353514)"
         inkscape:transform-center-y="0.88711066"
         inkscape:transform-center-x="3.9075329"
         inkscape:export-ydpi="96"
         inkscape:export-xdpi="96"
         id="text11951-5-2"
         y="10167.356"
         x="27265.703"
         style="font-style:normal;font-variant:normal;font-weight:bold;font-stretch:normal;font-size:704.86199951px;line-height:1.25;font-family:'Latin Modern Roman';-inkscape-font-specification:'Latin Modern Roman, Bold';text-align:start;letter-spacing:0px;word-spacing:0px;writing-mode:lr-tb;text-anchor:start;fill:#ffffff;fill-opacity:1;stroke:none;stroke-width:0.36921218"
         xml:space="preserve"><tspan
           id="tspan11949-2-9"
           style="font-style:normal;font-variant:normal;font-weight:bold;font-stretch:normal;font-size:704.86199951px;line-height:0;font-family:'Latin Modern Roman';-inkscape-font-specification:'Latin Modern Roman, Bold';text-align:start;writing-mode:lr-tb;text-anchor:start;fill:#ffffff;stroke-width:0.36921218"
           y="10167.356"
           x="27265.703"
           sodipodi:role="line">2</tspan></text>
      <text
         transform="scale(0.96585565,-1.0353514)"
         inkscape:transform-center-y="0.88692594"
         inkscape:transform-center-x="3.9074372"
         inkscape:export-ydpi="96"
         inkscape:export-xdpi="96"
         id="text11955-2-9"
         y="8266.0234"
         x="27270.719"
         style="font-style:normal;font-variant:normal;font-weight:bold;font-stretch:normal;font-size:704.86199951px;line-height:1.25;font-family:'Latin Modern Roman';-inkscape-font-specification:'Latin Modern Roman, Bold';text-align:start;letter-spacing:0px;word-spacing:0px;writing-mode:lr-tb;text-anchor:start;fill:#ffffff;fill-opacity:1;stroke:none;stroke-width:0.36921218"
         xml:space="preserve"><tspan
           id="tspan11953-6-9"
           style="font-style:normal;font-variant:normal;font-weight:bold;font-stretch:normal;font-size:704.86199951px;line-height:0;font-family:'Latin Modern Roman';-inkscape-font-specification:'Latin Modern Roman, Bold';text-align:start;writing-mode:lr-tb;text-anchor:start;fill:#ffffff;stroke-width:0.36921218"
           y="8266.0234"
           x="27270.719"
           sodipodi:role="line">3</tspan></text>
    </g>
    <path
       style="fill:none;stroke:#000000;stroke-width:10.47992229;stroke-linecap:butt;stroke-linejoin:miter;stroke-miterlimit:4;stroke-dasharray:none;stroke-opacity:1;marker-end:url(#marker19678)"
       d="m 566.78549,671.5351 0,-54.64131"
       id="path15308-5-6"
       inkscape:connector-curvature="0" />
    <path
       style="fill:none;stroke:#000000;stroke-width:10.47992229;stroke-linecap:butt;stroke-linejoin:miter;stroke-miterlimit:4;stroke-dasharray:none;stroke-opacity:1;marker-end:url(#marker18418)"
       d="m 566.78549,576.36788 0,-54.64131"
       id="path15308-5-2"
       inkscape:connector-curvature="0" />
    <path
       style="fill:none;stroke:#000000;stroke-width:10.47992229;stroke-linecap:butt;stroke-linejoin:miter;stroke-miterlimit:4;stroke-dasharray:none;stroke-opacity:1;marker-end:url(#marker18408)"
       d="m 566.78549,760.8809 0,-54.64131"
       id="path15308-5-3"
       inkscape:connector-curvature="0" />
    <ellipse
       ry="30.878016"
       rx="33.8708"
       cy="532.13416"
       cx="448.40222"
       id="ellipse11912-4"
       style="opacity:1;fill:#808080;fill-opacity:1;stroke:none;stroke-width:2.79089522;stroke-miterlimit:4;stroke-dasharray:none;stroke-dashoffset:0;stroke-opacity:1" />
    <ellipse
       ry="30.878016"
       rx="33.8708"
       cy="628.62811"
       cx="448.40222"
       id="ellipse11914-1"
       style="opacity:1;fill:#808080;fill-opacity:1;stroke:none;stroke-width:2.79089522;stroke-miterlimit:4;stroke-dasharray:none;stroke-dashoffset:0;stroke-opacity:1" />
    <ellipse
       ry="30.878016"
       rx="33.8708"
       cy="725.12189"
       cx="448.40222"
       id="ellipse11916-1"
       style="opacity:1;fill:#808080;fill-opacity:1;stroke:none;stroke-width:2.79089522;stroke-miterlimit:4;stroke-dasharray:none;stroke-dashoffset:0;stroke-opacity:1" />
    <path
       inkscape:connector-curvature="0"
       id="path11918-3"
       d="m 448.40228,507.97382 0,217.14818"
       style="fill:#ffffff;stroke:#808080;stroke-width:14.82152843;stroke-linecap:butt;stroke-linejoin:miter;stroke-miterlimit:4;stroke-dasharray:none;stroke-opacity:1" />
    <path
       inkscape:transform-center-y="-17.10377"
       inkscape:transform-center-x="236.37785"
       inkscape:connector-curvature="0"
       d="m 459.54038,499.08994 c -3.14371,0.69673 -5.97635,2.52804 -8.61245,5.57371 -0.9497,1.09481 -2.71806,2.94607 -3.91332,4.10068 l -2.16127,2.09009 -1.44086,0.11946 c -5.27233,0.41801 -11.00306,6.21071 -17.27413,17.45765 -1.57186,2.80676 -5.94358,11.5058 -6.38569,12.68018 -0.0982,0.25885 -1.47366,1.79161 -3.04549,3.40404 -4.65009,4.6978 -10.47907,10.80899 -11.88715,12.46121 l -1.3099,1.53276 1.21164,0.69673 c 1.76828,0.99528 3.3893,1.67215 4.04426,1.67215 0.72043,0 1.55549,-0.93564 9.44754,-10.62997 3.04551,-3.74231 5.50153,-6.70831 5.45237,-6.58885 -0.0328,0.0995 -2.79987,4.45897 -6.12369,9.65445 l -6.05821,9.43548 0.32746,0.77631 c 0.42575,1.03516 1.50634,2.4286 2.09582,2.72717 1.03154,0.51761 1.80109,-0.13931 3.01276,-2.64751 1.01515,-2.09017 3.5039,-6.23064 6.36926,-10.59009 1.98122,-2.98586 4.55183,-6.76804 4.61739,-6.76804 0.0164,0 0.60579,0.53739 1.29348,1.21426 2.2923,2.20956 5.32138,3.80212 8.10492,4.27988 0.68766,0.11937 1.58824,0.33834 1.99755,0.49759 0.7368,0.27871 0.76958,0.3185 0.86781,1.21426 0.0491,0.49769 0.0983,2.84655 0.0983,5.21543 0.0164,4.61822 0.24564,11.58538 0.42568,12.79956 0.0982,0.69672 0.0819,0.75654 -0.2783,0.75654 -0.21287,0 -1.12979,-0.31851 -2.01396,-0.69674 -1.88296,-0.79623 -2.14497,-0.83603 -2.39056,-0.31849 -0.19643,0.45789 -0.19643,0.63691 -0.0164,0.97534 0.16372,0.31858 2.81625,1.53277 3.76595,1.73189 0.5894,0.11946 0.90055,0.37823 1.93208,1.67207 0.96605,1.19441 1.3754,1.89113 1.91565,3.24471 0.36024,0.97543 0.78599,1.79153 0.93336,1.85126 0.37654,0.15925 0.76955,-0.0797 0.88419,-0.51754 0.13092,-0.47774 -0.4585,-2.38873 -1.0643,-3.5034 -0.7041,-1.25413 -0.7041,-1.25413 2.12856,1.21418 0.57305,0.49769 0.72043,0.53748 1.06422,0.3583 0.7368,-0.41802 0.54039,-1.09472 -0.60577,-2.16968 -0.55672,-0.51762 -1.27715,-1.15462 -1.60461,-1.39352 l -0.57309,-0.43789 0.68769,-0.0199 c 0.65495,0 1.19527,-0.37822 1.19527,-0.81618 0,-0.11945 -0.0818,-0.37822 -0.16371,-0.5972 -0.16379,-0.33843 -0.3602,-0.37823 -2.19409,-0.37823 l -2.03032,0 -0.18012,-2.24942 c -0.21285,-2.26928 -0.49117,-17.03955 -0.34383,-17.15901 0.0491,-0.0399 0.52395,0.0399 1.06423,0.13931 0.54038,0.0995 2.09585,0.15925 3.45486,0.0995 l 2.45601,-0.0995 0.60584,1.51291 c 0.99877,2.56783 2.93084,6.80791 3.91327,8.6193 0.85141,1.55269 1.55547,3.36416 1.83385,4.7974 l 0.0982,0.55741 -1.8011,0 c -1.98122,0 -2.45602,0.15925 -2.45602,0.8559 0,0.85605 0.26194,0.93564 2.73439,0.93564 2.09582,0 2.35775,0.0398 2.45602,0.33834 0.0655,0.19912 0.27838,0.63708 0.50754,0.99537 0.21289,0.35829 0.58942,1.11467 0.81868,1.69201 0.50762,1.19433 0.98246,1.4531 1.39176,0.75645 0.22927,-0.39808 0.22927,-0.53748 0.0164,-1.27399 -0.131,-0.43795 -0.42571,-1.15461 -0.63859,-1.55269 -0.22926,-0.41803 -0.4093,-0.79625 -0.4093,-0.85598 0,-0.23891 0.63854,-0.0797 0.83499,0.21898 0.11464,0.1791 0.65496,0.57726 1.19534,0.9157 0.55669,0.3185 1.34261,0.9555 1.76828,1.37352 0.80233,0.81618 1.49002,0.99528 1.67013,0.4578 0.2292,-0.73659 0.0655,-1.09489 -0.90054,-2.03044 l -0.99882,-0.93556 1.40813,-0.0598 c 1.34268,-0.0598 1.42449,-0.0797 1.62098,-0.57734 0.16375,-0.43796 0.131,-0.55742 -0.19649,-0.87583 -0.34386,-0.33844 -0.70406,-0.37823 -3.94598,-0.37823 l -3.56946,0 -0.26194,-1.29393 c -0.36024,-1.77167 -0.9333,-3.26456 -1.96488,-5.15569 -1.63736,-3.02573 -4.32256,-9.2165 -4.0934,-9.45541 0.0819,-0.0797 0.62224,-0.29857 1.21167,-0.4976 1.71925,-0.53748 3.91331,-1.63237 5.48515,-2.72717 5.28866,-3.68258 8.85809,-9.13691 10.23347,-15.56661 0.16375,-0.79624 0.52394,-2.01051 0.78595,-2.68729 1.24438,-3.16512 1.03148,-7.38518 -0.54035,-11.1873 -0.55672,-1.33372 -0.55672,-1.37351 -0.22923,-1.49296 0.44209,-0.1791 2.78355,-3.64279 3.37297,-4.99645 0.26193,-0.63692 0.58943,-1.13459 0.78595,-1.17439 0.58942,-0.17919 10.3317,-1.89113 10.6919,-1.89113 0.19649,0 0.36023,-0.0598 0.36023,-0.15925 0,-0.0797 -1.34261,-0.39808 -2.99637,-0.69673 -5.74716,-1.07487 -7.10613,-1.41329 -6.58218,-1.57254 0.27838,-0.0797 2.52156,-0.33844 4.99391,-0.57728 2.47245,-0.21897 4.51915,-0.43795 4.55186,-0.47774 0.0983,-0.0995 -0.29471,-0.19912 -5.45237,-1.49297 -2.70161,-0.65693 -5.07581,-1.25413 -5.25593,-1.29393 -0.19645,-0.0598 -0.65491,-0.57726 -1.01511,-1.15453 -2.09582,-3.36416 -6.66412,-4.99645 -11.21591,-4.00116 z"
       id="path12918-2-4"
       style="fill:#c34141;fill-opacity:1;stroke:#800000;stroke-width:1.88696647;stroke-miterlimit:4;stroke-dasharray:none;stroke-opacity:1" />
    <g
       style="display:inline;fill:#009048;fill-opacity:1;stroke:#004f00;stroke-width:1.18502116;stroke-miterlimit:4;stroke-dasharray:none;stroke-opacity:1"
       id="g15656-0-9-0-3-6"
       transform="matrix(2.3604998,-0.41329262,0.51594505,1.9756735,-83.25864,887.46258)">
      <path
         sodipodi:nodetypes="cccccccccccccccccccccccccccccccccccccccccccccccccccccccccccccccccccccccccccccccccccccccccccccccccccccc"
         inkscape:connector-curvature="0"
         id="path18912-54-3-7-0-3"
         d="m 229.53998,-53.469776 -0.70558,2.50385 -2.55093,3.42918 -1.79108,5.33429 0.48847,3.53806 3.79927,4.02793 3.03941,1.25192 1.2212,0.0544 0.67844,0.8709 c 0.28689,0.86052 0.51387,1.73981 0.75985,2.61271 l 0.0543,0.92533 -0.54274,-0.38101 -0.86841,-2.12283 -0.92268,-0.87092 -0.75985,-0.1088 -1.89964,-0.97977 -1.30261,-0.0544 -3.36506,0.1088 -1.95391,0.97977 -1.19404,1.25192 -1.84537,1.0342 2.44239,1.08863 2.17101,1.08863 1.68253,0.97977 2.06245,0.92533 1.89964,0.0544 1.62826,-0.70761 0.97695,0.70761 0.81413,-0.38103 -0.0543,0.87091 1.08551,0 1.46542,-0.38102 1.46544,4.08237 -0.54275,0.27216 -0.2171,-0.10892 -0.27138,-1.30636 -0.81413,-0.43546 -0.92268,-0.43545 -1.89963,-0.48988 -0.48847,0.27216 -1.62826,0.32659 -0.75985,0.92534 -1.24834,0.97976 -1.68253,1.52408 -1.13978,2.12283 -0.2171,2.93931 0.75986,-1.52409 1.79107,-0.21772 2.49667,0.76204 0.8684,0.43545 3.85354,-0.76204 2.60522,-0.97977 0.37992,-2.34056 1.13978,3.59248 0.65131,0.10881 0.59702,-0.76204 -0.16283,-0.81647 -0.97694,-1.30636 1.79108,0.27216 2.55093,-0.27216 2.11673,-1.79624 1.08551,-2.01396 0.16282,-2.01398 0.59702,-1.25192 0,-0.65317 1.24834,-2.93931 -1.24834,0.81648 -1.62824,0 -1.62826,0.10881 -1.57399,0.97976 -2.71376,0.65318 -1.46543,0.92533 -0.27137,1.30636 -0.75986,0.54431 -0.16282,0.54432 -0.92269,-2.34056 0.65131,0.38103 0.6513,0.43545 1.13978,-0.87091 0.32566,-1.41522 1.35687,-0.76203 1.46543,-1.36079 1.35688,-2.93931 -0.0345,-2.06613 -1.68253,-4.35452 -1.03122,-1.25192 -0.70559,-1.3608 0,-0.92533 -1.41116,1.79625 -1.00611,2.62119 -0.95235,1.48458 -1.29661,2.54862 -0.42655,2.32488 -0.2948,-1.25878 -0.17812,-1.31585 1.99059,-3.99692 0.55978,-3.25883 -0.91224,-4.26773 -2.3881,-2.61271 -1.84536,-1.63294 c -0.53722,-0.40145 -1.05419,-0.82838 -1.57399,-1.25193 z"
         style="fill:#009048;fill-opacity:1;stroke:#004f00;stroke-width:1.18502116;stroke-linecap:butt;stroke-linejoin:miter;stroke-miterlimit:4;stroke-dasharray:none;stroke-opacity:1" />
    </g>
    <text
       transform="scale(1.0473409,0.95479896)"
       inkscape:transform-center-y="0.91558536"
       inkscape:transform-center-x="4.1567973"
       inkscape:export-ydpi="96"
       inkscape:export-xdpi="96"
       id="text11945-8"
       y="771.17688"
       x="417.09244"
       style="font-style:normal;font-variant:normal;font-weight:bold;font-stretch:normal;font-size:36.9899826px;line-height:1.25;font-family:'Latin Modern Roman';-inkscape-font-specification:'Latin Modern Roman, Bold';text-align:start;letter-spacing:0px;word-spacing:0px;writing-mode:lr-tb;text-anchor:start;fill:#ffffff;fill-opacity:1;stroke:none;stroke-width:0.36921218"
       xml:space="preserve"><tspan
         id="tspan11943-6"
         style="font-style:normal;font-variant:normal;font-weight:bold;font-stretch:normal;font-size:36.9899826px;line-height:0;font-family:'Latin Modern Roman';-inkscape-font-specification:'Latin Modern Roman, Bold';text-align:start;writing-mode:lr-tb;text-anchor:start;fill:#ffffff;stroke-width:0.36921218"
         y="771.17688"
         x="417.09244"
         sodipodi:role="line">1</tspan></text>
    <g
       style="display:inline;fill:#4c3d6a;fill-opacity:1;stroke:#000080;stroke-width:1.49154162;stroke-miterlimit:4;stroke-dasharray:none"
       id="g15083-7-57-2-2-3-2-6"
       transform="matrix(-2.3109211,0.61434295,0.75663046,2.0000014,1020.0942,278.40813)">
      <path
         inkscape:connector-curvature="0"
         id="path3613-3-9-4-0-1-4-8-1-3"
         d="m 263.11714,91.664983 0.42987,-1.282902 1.00095,-0.956114 0.51174,-1.527239 0.69515,-1.262143 2.63568,-2.991088 1.63307,-0.405146 0.24563,-0.733081 4.10376,-1.685126 5.71474,-0.399339 4.38705,0.719287 4.83432,2.431261 2.60844,3.793087 0.95431,4.870516 -0.98316,3.543516 -2.30816,2.013633 -7.67346,-0.0517 0.42781,0.75441 5.36633,1.04665 -0.65381,0.732485 0.91808,0.30691 -0.12446,1.99637 -1.02102,0.60975 -0.26509,-0.22448 0.20531,-1.22209 -1.48876,-1.04114 -3.63153,-1.146055 -0.79586,-0.0622 -0.57131,-0.12305 -1.22407,-0.40919 -0.28454,-1.18203 -2.61152,-0.737153 -1.42756,-1.020679 -0.18423,0.54981 1.63124,1.428422 0.24379,1.1005 0.61143,0.81578 -0.32751,0.977445 1.04047,0.34782 -0.26632,0.9979 0.38647,1.28406 -0.65442,1.34367 0.0802,1.3855 -0.91908,0.71176 -0.90045,2.48422 -0.36662,-0.73395 0.57314,-1.71053 -0.40775,-0.40803 0.22517,-0.67198 0.40837,-0.20317 0.30705,-0.91635 0.38789,-0.14206 -0.16252,-0.73365 0.22517,-0.672 -0.53038,-0.24524 -0.10031,-1.73184 -0.61101,-1.22326 -0.97927,-0.327355 -0.83395,-2.792282 -0.71172,-2.547637 -0.89882,0.854395 0.14083,2.017124 -0.55412,3.075535 -1.08203,0.38554 -0.12282,0.36654 -1.38824,0.487 -1.06115,-0.083 -0.26611,0.79416 -0.93915,0.36538 0.38668,1.08034 -0.46938,-0.0209 0.10093,1.12066 -0.776,0.48785 -0.49127,1.46616 -0.0391,-1.7114 -0.28474,-0.97831 0.55124,-0.22331 0.18424,-0.54982 0.40878,-0.61062 -0.16273,-0.52993 0.75636,-1.24168 0.12302,-0.57026 0.98029,-0.691305 1.2241,0.409205 0.30642,-0.305155 0.24564,-0.73307 0.0416,-0.73337 0.71685,-2.545613 -1.32746,0.914904 -1.16309,-0.185006 -0.79565,-0.265981 -0.36784,0.488419 -0.69393,0.03974 0.0397,1.100217 -0.61408,1.83268 -0.5101,-0.1026 0.26712,-1.81281 -0.8366,-0.1438 -0.65298,-0.0825 -0.38627,-1.487789 -2.73556,0.851797 -1.79683,0.893852 -0.32567,-0.856132 0.30704,-0.916352 4.22494,-0.421831 -0.30478,-1.324669 -0.0604,-0.835386 -0.79564,-0.265981 -0.57069,-0.734241 -4.38605,-1.737935 -1.857,-0.145253 -3.04057,-0.269165 0.30704,-0.916346 3.30586,0.289915 3.30523,0.901101 1.9786,1.001095 0.14329,-0.427624 0.5101,0.102593 -0.7541,-0.99935 -0.36724,-0.122762 0.89863,-0.650661 1.0806,1.040565 z"
         style="fill:#4c3d6a;fill-opacity:1;stroke:#000080;stroke-width:1.49154162;stroke-linecap:butt;stroke-linejoin:miter;stroke-miterlimit:4;stroke-dasharray:none;stroke-opacity:1" />
    </g>
    <text
       transform="scale(1.0473409,0.95479896)"
       inkscape:transform-center-y="0.91583824"
       inkscape:transform-center-x="4.1569184"
       inkscape:export-ydpi="96"
       inkscape:export-xdpi="96"
       id="text11951-5"
       y="670.2373"
       x="416.56552"
       style="font-style:normal;font-variant:normal;font-weight:bold;font-stretch:normal;font-size:36.9899826px;line-height:1.25;font-family:'Latin Modern Roman';-inkscape-font-specification:'Latin Modern Roman, Bold';text-align:start;letter-spacing:0px;word-spacing:0px;writing-mode:lr-tb;text-anchor:start;fill:#ffffff;fill-opacity:1;stroke:none;stroke-width:0.36921218"
       xml:space="preserve"><tspan
         id="tspan11949-2"
         style="font-style:normal;font-variant:normal;font-weight:bold;font-stretch:normal;font-size:36.9899826px;line-height:0;font-family:'Latin Modern Roman';-inkscape-font-specification:'Latin Modern Roman, Bold';text-align:start;writing-mode:lr-tb;text-anchor:start;fill:#ffffff;stroke-width:0.36921218"
         y="670.2373"
         x="416.56552"
         sodipodi:role="line">2</tspan></text>
    <text
       transform="scale(1.0473409,0.95479896)"
       inkscape:transform-center-y="0.91568286"
       inkscape:transform-center-x="4.1568158"
       inkscape:export-ydpi="96"
       inkscape:export-xdpi="96"
       id="text11955-2"
       y="570.45856"
       x="416.82874"
       style="font-style:normal;font-variant:normal;font-weight:bold;font-stretch:normal;font-size:36.9899826px;line-height:1.25;font-family:'Latin Modern Roman';-inkscape-font-specification:'Latin Modern Roman, Bold';text-align:start;letter-spacing:0px;word-spacing:0px;writing-mode:lr-tb;text-anchor:start;fill:#ffffff;fill-opacity:1;stroke:none;stroke-width:0.36921218"
       xml:space="preserve"><tspan
         id="tspan11953-6"
         style="font-style:normal;font-variant:normal;font-weight:bold;font-stretch:normal;font-size:36.9899826px;line-height:0;font-family:'Latin Modern Roman';-inkscape-font-specification:'Latin Modern Roman, Bold';text-align:start;writing-mode:lr-tb;text-anchor:start;fill:#ffffff;stroke-width:0.36921218"
         y="570.45856"
         x="416.82874"
         sodipodi:role="line">3</tspan></text>
  </g>
</svg>
